<?xml version="1.0" standalone="no"?>
<!DOCTYPE svg PUBLIC "-//W3C//DTD SVG 20010904//EN"
 "http://www.w3.org/TR/2001/REC-SVG-20010904/DTD/svg10.dtd">
<svg version="1.0" xmlns="http://www.w3.org/2000/svg"
 width="2000.000000pt" height="1000.000000pt" viewBox="0 0 2000.000000 1000.000000"
 preserveAspectRatio="xMidYMid meet">

<g transform="translate(0.000000,1000.000000) scale(0.100000,-0.100000)"
fill="#FFF" stroke="none">
<path d="M1780 9736 c-25 -7 -61 -21 -80 -31 -19 -9 -143 -126 -276 -259 -287
-287 -299 -305 -299 -451 0 -163 -227 78 2361 -2505 1270 -1267 3160 -3153
4199 -4191 1040 -1037 1908 -1899 1930 -1916 112 -85 240 -127 385 -127 124 0
203 19 305 72 64 33 167 133 1215 1174 630 626 2534 2525 4232 4220 3024 3021
3087 3084 3109 3143 29 82 29 180 -1 260 -21 55 -44 81 -269 308 -293 295
-318 312 -461 312 -76 0 -92 -3 -152 -33 -70 -34 -256 -219 -7040 -6991 l-937
-935 -2598 2594 c-5355 5347 -5322 5314 -5382 5339 -66 28 -178 36 -241 17z"/>
</g>
</svg>
